<?xml version="1.0" encoding="UTF-8" standalone="no"?>
<svg
   xmlns:dc="http://purl.org/dc/elements/1.1/"
   xmlns:cc="http://creativecommons.org/ns#"
   xmlns:rdf="http://www.w3.org/1999/02/22-rdf-syntax-ns#"
   xmlns:svg="http://www.w3.org/2000/svg"
   xmlns="http://www.w3.org/2000/svg"
   xmlns:sodipodi="http://sodipodi.sourceforge.net/DTD/sodipodi-0.dtd"
   xmlns:inkscape="http://www.inkscape.org/namespaces/inkscape"
   viewBox="0 0 50 50"
   version="1.1"
   id="svg5127"
   sodipodi:docname="3dprinter.svg"
   inkscape:version="0.92.3 (2405546, 2018-03-11)">
  <metadata
     id="metadata5133">
    <rdf:RDF>
      <cc:Work
         rdf:about="">
        <dc:format>image/svg+xml</dc:format>
        <dc:type
           rdf:resource="http://purl.org/dc/dcmitype/StillImage" />
        <dc:title></dc:title>
      </cc:Work>
    </rdf:RDF>
  </metadata>
  <defs
     id="defs5131" />
  <sodipodi:namedview
     pagecolor="#ffffff"
     bordercolor="#666666"
     borderopacity="1"
     objecttolerance="10"
     gridtolerance="10"
     guidetolerance="10"
     inkscape:pageopacity="0"
     inkscape:pageshadow="2"
     inkscape:window-width="1680"
     inkscape:window-height="987"
     id="namedview5129"
     showgrid="false"
     inkscape:zoom="4.72"
     inkscape:cx="-9.4279661"
     inkscape:cy="25"
     inkscape:window-x="-8"
     inkscape:window-y="-8"
     inkscape:window-maximized="1"
     inkscape:current-layer="svg5127" />
  <path
     style="line-height:normal;text-indent:0;text-align:start;text-decoration-line:none;text-decoration-style:solid;text-decoration-color:#000;text-transform:none;block-progression:tb;isolation:auto;mix-blend-mode:normal;fill:#00ffcc;fill-opacity:1"
     d="M 23 2 C 21.277778 2 19.700066 2.6109179 18.623047 3.8417969 C 17.717636 4.8765528 17.192833 6.2899707 17.046875 8 L 8 8 C 6.343 8 5 9.343 5 11 L 5 12 L 5 14 L 5 44 C 5 45.657 6.343 47 8 47 L 42 47 C 43.657 47 45 45.657 45 44 L 45 41 L 45 11 C 45 9.343 43.657 8 42 8 L 41 8 C 39.583063 8 36.229035 6.5900993 32.828125 5.0859375 C 29.427215 3.5817757 25.9 2 23 2 z M 23 4 C 25.1 4 28.637441 5.4182243 32.019531 6.9140625 C 32.844421 7.2788964 33.653098 7.6483896 34.443359 8 L 19.064453 8 C 19.201014 6.7132295 19.586904 5.7754025 20.126953 5.1582031 C 20.799934 4.3890821 21.722222 4 23 4 z M 7 14 L 43 14 L 43 41 L 7 41 L 7 14 z M 15 15 L 15 16 C 15 17.105 15.895 18 17 18 L 17 19 L 19 19 L 19 18 C 20.105 18 21 17.105 21 16 L 21 15 L 15 15 z M 25 19.521484 L 16.619141 21.953125 L 24.998047 24.931641 L 33.330078 21.939453 L 25 19.521484 z M 35 23.289062 L 26 26.691406 L 26 37.720703 L 35 34.720703 L 35 23.289062 z M 15 23.324219 L 15 34.720703 L 24 37.720703 L 24 26.693359 L 15 23.324219 z"
     id="path5125" />
</svg>
