<?xml version="1.0" encoding="UTF-8" standalone="no"?>
<!-- Created with Inkscape (http://www.inkscape.org/) -->

<svg
   xmlns:dc="http://purl.org/dc/elements/1.1/"
   xmlns:cc="http://creativecommons.org/ns#"
   xmlns:rdf="http://www.w3.org/1999/02/22-rdf-syntax-ns#"
   xmlns:svg="http://www.w3.org/2000/svg"
   xmlns="http://www.w3.org/2000/svg"
   xmlns:sodipodi="http://sodipodi.sourceforge.net/DTD/sodipodi-0.dtd"
   xmlns:inkscape="http://www.inkscape.org/namespaces/inkscape"
   width="26"
   height="12"
   version="1.1"
   id="svg3803"
   inkscape:version="0.92.3 (2405546, 2018-03-11)"
   sodipodi:docname="3dprinter.svg">
  <defs
     id="defs3797" />
  <sodipodi:namedview
     id="base"
     pagecolor="#ffffff"
     bordercolor="#666666"
     borderopacity="1.0"
     inkscape:pageopacity="0.0"
     inkscape:pageshadow="2"
     inkscape:zoom="15.839192"
     inkscape:cx="37.189828"
     inkscape:cy="5.1429412"
     inkscape:document-units="mm"
     inkscape:current-layer="layer1"
     showgrid="false"
     inkscape:window-width="1680"
     inkscape:window-height="987"
     inkscape:window-x="-8"
     inkscape:window-y="-8"
     inkscape:window-maximized="1" />
  <metadata
     id="metadata3800">
    <rdf:RDF>
      <cc:Work
         rdf:about="">
        <dc:format>image/svg+xml</dc:format>
        <dc:type
           rdf:resource="http://purl.org/dc/dcmitype/StillImage" />
        <dc:title></dc:title>
      </cc:Work>
    </rdf:RDF>
  </metadata>
  <g
     inkscape:label="Laag 1"
     inkscape:groupmode="layer"
     id="layer1">
    <path
       id="path5114"
       d="m 12.344166,0.07503439 c -0.454896,0 -0.87162,0.1613636 -1.156093,0.48647753 C 10.948922,0.83482374 10.810308,1.208153 10.771754,1.6598259 H 8.3821871 c -0.4376664,0 -0.7923956,0.3547293 -0.7923956,0.7923965 v 0.2641318 0.5282639 7.9239579 c 0,0.437665 0.3547292,0.792395 0.7923956,0.792395 h 8.9804839 c 0.437667,0 0.792396,-0.35473 0.792396,-0.792395 V 10.37618 2.4522224 c 0,-0.4376672 -0.354729,-0.7923965 -0.792396,-0.7923965 h -0.264132 c -0.374257,0 -1.260163,-0.3723996 -2.158453,-0.76969686 -0.898288,-0.39729705 -1.829938,-0.81509465 -2.59592,-0.81509465 z m 0,0.52826389 c 0.554676,0 1.489027,0.37459885 2.382346,0.76969752 0.217879,0.096363 0.431476,0.1939586 0.640209,0.2868301 h -4.062059 c 0.03607,-0.3398771 0.137996,-0.5875874 0.280639,-0.7506087 0.177756,-0.20314983 0.421363,-0.30591892 0.758865,-0.30591892 z M 8.1180554,3.2446181 H 17.626803 V 10.37618 H 8.1180554 Z M 10.23111,3.50875 v 0.264132 c 0,0.2918655 0.236397,0.5282637 0.528264,0.5282637 v 0.264132 h 0.528265 v -0.264132 c 0.291864,0 0.528263,-0.2363982 0.528263,-0.5282637 V 3.50875 Z m 2.641319,1.1942678 -2.213653,0.6422749 2.213137,0.7867201 2.200756,-0.7903329 z m 2.641319,0.9951379 -2.377187,0.8986681 v 2.9131889 l 2.377187,-0.7923966 z m -5.282638,0.00931 v 3.0101755 l 2.377187,0.7923996 V 6.5973406 Z"
       style="line-height:normal;text-indent:0;text-align:start;text-decoration:none;text-decoration-line:none;text-decoration-style:solid;text-decoration-color:#000000;text-transform:none;isolation:auto;mix-blend-mode:normal;fill:#00ffcc;fill-opacity:1;stroke-width:0.26413193"
       inkscape:connector-curvature="0" />
  </g>
</svg>
